<svg width="43" height="45" viewBox="0 0 43 45" fill="none" xmlns="http://www.w3.org/2000/svg">
<path d="M27.7737 22.4761L32.2586 17.7347C32.6981 17.2678 32.6981 16.4895 32.2586 16.0465L27.368 10.8502C26.951 10.3833 26.2186 10.3833 25.7791 10.8502L21.3167 15.6155L16.8092 10.8502C16.5979 10.6275 16.3123 10.5025 16.0147 10.5025C15.7171 10.5025 15.4315 10.6275 15.2203 10.8502L10.3296 16.0465C9.89013 16.4895 9.89013 17.2678 10.3296 17.7347L14.8146 22.4761L10.3296 27.2653C9.89013 27.7322 9.89013 28.4626 10.3296 28.9535L15.2203 34.1498C15.6823 34.6167 16.3697 34.6167 16.8092 34.1498L21.3167 29.3845L25.7791 34.1498C26.0045 34.3892 26.2862 34.497 26.5792 34.497C26.8722 34.497 27.1539 34.3773 27.3793 34.1498L32.2699 28.9535C32.7094 28.4626 32.7094 27.7322 32.2699 27.2653L27.7737 22.4761ZM21.3167 18.8841C21.6155 18.8841 21.9021 19.0103 22.1135 19.2348C22.3248 19.4594 22.4435 19.7639 22.4435 20.0814C22.4435 20.399 22.3248 20.7035 22.1135 20.9281C21.9021 21.1526 21.6155 21.2787 21.3167 21.2787C21.0178 21.2787 20.7312 21.1526 20.5198 20.9281C20.3085 20.7035 20.1898 20.399 20.1898 20.0814C20.1898 19.7639 20.3085 19.4594 20.5198 19.2348C20.7312 19.0103 21.0178 18.8841 21.3167 18.8841ZM16.0091 21.2309L11.9185 16.8966L16.0091 12.5504L20.0884 16.8846L16.0091 21.2309ZM19.0629 23.6734C18.764 23.6734 18.4774 23.5472 18.2661 23.3227C18.0548 23.0981 17.936 22.7936 17.936 22.4761C17.936 22.1585 18.0548 21.854 18.2661 21.6294C18.4774 21.4049 18.764 21.2787 19.0629 21.2787C19.3618 21.2787 19.6484 21.4049 19.8597 21.6294C20.0711 21.854 20.1898 22.1585 20.1898 22.4761C20.1898 22.7936 20.0711 23.0981 19.8597 23.3227C19.6484 23.5472 19.3618 23.6734 19.0629 23.6734ZM21.3167 26.068C21.0178 26.068 20.7312 25.9418 20.5198 25.7173C20.3085 25.4928 20.1898 25.1882 20.1898 24.8707C20.1898 24.5531 20.3085 24.2486 20.5198 24.024C20.7312 23.7995 21.0178 23.6734 21.3167 23.6734C21.6155 23.6734 21.9021 23.7995 22.1135 24.024C22.3248 24.2486 22.4435 24.5531 22.4435 24.8707C22.4435 25.1882 22.3248 25.4928 22.1135 25.7173C21.9021 25.9418 21.6155 26.068 21.3167 26.068ZM23.5704 21.2787C23.8693 21.2787 24.1559 21.4049 24.3672 21.6294C24.5786 21.854 24.6973 22.1585 24.6973 22.4761C24.6973 22.7936 24.5786 23.0981 24.3672 23.3227C24.1559 23.5472 23.8693 23.6734 23.5704 23.6734C23.2715 23.6734 22.9849 23.5472 22.7736 23.3227C22.5623 23.0981 22.4435 22.7936 22.4435 22.4761C22.4435 22.1585 22.5623 21.854 22.7736 21.6294C22.9849 21.4049 23.2715 21.2787 23.5704 21.2787ZM26.5679 32.4616L22.4773 28.1273L26.5679 23.7811L30.6472 28.1154L26.5679 32.4616Z" fill="#84AAFF"/>
</svg>
